<svg width="126" height="30" viewBox="0 0 126 30" fill="none" xmlns="http://www.w3.org/2000/svg">
<g clip-path="url(#clip0_1_4)">
<path d="M25.9659 5.66702C24.9093 5.66702 24.1729 5.16543 23.7567 4.16222C22.2199 4.16222 20.5336 4.53575 18.698 5.28282C17.556 5.7524 16.7876 6.18463 16.3927 6.57951C15.9979 6.97439 15.7871 7.28388 15.7604 7.508C15.7337 7.73212 15.8431 7.92156 16.0886 8.07631C16.3341 8.23106 16.6782 8.3778 17.1211 8.51654C17.564 8.65528 18.079 8.79402 18.666 8.93277C21.7396 9.64782 23.6873 10.1441 24.5091 10.4216C26.1419 10.9659 27.3639 11.5635 28.175 12.2145C28.9434 12.8655 29.3276 13.7513 29.3276 14.8719C29.3276 15.8004 29.0422 16.5848 28.4712 17.2252C27.9002 17.8655 27.1451 18.4365 26.206 18.9381C25.2668 19.4397 24.2183 19.8853 23.0603 20.2748C21.9023 20.6644 20.6804 20.9979 19.3943 21.2753C18.1083 21.5528 16.841 21.7823 15.5923 21.9637C13.1483 22.3052 11.0619 22.476 9.33298 22.476C6.18462 22.476 3.75669 22.0971 2.0491 21.3394C1.40876 21.0512 0.885807 20.3309 0.480255 19.1782C0.160083 18.2284 0 17.4466 0 16.833C0 16.2193 0.0533712 15.8805 0.160095 15.8164C0.266819 15.7524 0.485593 15.7497 0.816437 15.8084C1.14728 15.8671 1.57951 15.9658 2.11313 16.1046L4.03415 16.6169C7.01175 17.3639 10.1601 17.7375 13.4792 17.7375C15.9232 17.7375 17.9936 17.5187 19.6905 17.0811C20.6937 16.8143 21.2273 16.5155 21.2914 16.1846C21.334 15.8965 20.5443 15.539 18.9221 15.1121C18.1857 14.9093 17.3319 14.6958 16.3607 14.4717C11.6542 13.3298 8.81537 12.5934 7.84418 12.2625C6.87299 11.9317 6.24066 11.6382 5.94717 11.3821C5.65368 11.1259 5.41088 10.8431 5.21878 10.5336C4.86659 9.92529 4.69049 9.34632 4.69049 8.79669C4.69049 8.24706 4.71983 7.82284 4.77853 7.52401C4.83723 7.22519 4.91995 6.94771 5.02667 6.69157C5.25079 6.16862 5.53361 5.8111 5.87512 5.619C8.61793 4.08217 12.6467 2.73213 17.9616 1.56884C22.6895 0.52294 26.5795 0 29.6318 0C30.2508 0 30.715 0.106723 31.0245 0.320171C31.5582 0.715051 31.7929 1.1366 31.7289 1.58484C31.6649 2.03309 31.5288 2.44664 31.3207 2.82551C31.1126 3.20438 30.8538 3.54589 30.5443 3.85005C30.2348 4.15422 29.8906 4.42103 29.5117 4.65048C29.1329 4.87994 28.7407 5.06937 28.3351 5.21878C27.524 5.51761 26.7343 5.66702 25.9659 5.66702ZM38.0203 17.7695C38.3725 17.6201 38.8634 17.3853 39.4931 17.0651C43.3458 15.0907 45.4589 14.0021 45.8325 13.7994L46.5048 13.4312C47.1985 12.9829 47.5187 12.6307 47.4653 12.3746C47.3479 11.8303 47.0544 11.6089 46.5848 11.7102C46.1153 11.8116 45.627 11.9477 45.1201 12.1185C44.6131 12.2892 44.0768 12.4973 43.5112 12.7428C42.3266 13.2337 41.286 13.7246 40.3895 14.2156C37.2518 16.0192 35.3629 17.1131 34.7225 17.4973C34.2636 18.5326 33.8527 19.5624 33.4899 20.587L31.5528 26.0619C30.9445 27.7588 30.3309 28.9061 29.7119 29.5037C29.381 29.8346 29.0128 30 28.6073 30C27.6041 30 26.8143 29.6505 26.238 28.9514C25.6617 28.2524 25.3735 27.3666 25.3735 26.294C25.3735 25.2214 25.5123 24.1649 25.7898 23.1243C26.0672 22.0838 26.4515 21.0299 26.9424 19.9626C27.9349 17.8068 29.2636 15.7951 30.9285 13.9274C31.9424 11.206 33.6286 8.56458 35.9872 6.0032C37.428 4.44503 38.7673 3.34579 40.0053 2.70544C40.6243 2.38527 41.1526 2.22519 41.5902 2.22519C42.0277 2.22519 42.3586 2.3239 42.5827 2.52134C42.8068 2.71878 42.9189 2.96424 42.9189 3.25774C42.9189 3.55123 42.8282 3.92209 42.6468 4.37033C42.4653 4.81857 42.2198 5.32017 41.9103 5.87513C41.6008 6.4301 41.238 7.02241 40.8218 7.65208L39.4931 9.58912C39.3863 9.7492 39.333 9.89327 39.333 10.0213C39.333 10.2241 39.4557 10.3255 39.7012 10.3255C39.9787 10.3255 40.4909 10.1494 41.238 9.79723L43.7993 8.61259C46.0406 7.59872 48.1857 7.09178 50.2348 7.09178C51.302 7.09178 52.3052 7.59872 53.2444 8.61259C54.1942 9.63715 54.6692 10.7364 54.6692 11.9104C54.6692 13.7247 53.9274 15.1227 52.444 16.1046L50.4589 17.4173C49.7439 17.8655 49.0075 18.3084 48.2497 18.746L45.9445 20.0107C43.3511 21.3554 41.3474 22.0277 39.9333 22.0277C38.5192 22.0277 37.492 21.8517 36.8517 21.4995C36.2113 21.1473 35.8911 20.651 35.8911 20.0107C35.8911 19.1462 36.6008 18.3992 38.0203 17.7695ZM71.174 11.9104C71.174 12.4867 71.6649 12.7748 72.6468 12.7748C73.3725 12.7748 74.3223 12.4226 75.4963 11.7183L76.7769 11.0139C77.1718 10.7898 77.516 10.6777 77.8095 10.6777C78.103 10.6777 78.3351 10.7684 78.5059 10.9498C78.6766 11.1313 78.762 11.3821 78.762 11.7022C78.762 12.0224 78.6553 12.3933 78.4418 12.8148C78.2284 13.2364 77.9349 13.6793 77.5614 14.1435C77.1878 14.6078 76.7503 15.0667 76.2487 15.5203C75.7471 15.9739 75.2081 16.3821 74.6318 16.7449C73.3511 17.5454 72.1611 17.9456 71.0619 17.9456C69.8986 17.9456 68.9701 17.7481 68.2764 17.3533C68.063 17.2252 67.8548 17.0918 67.6521 16.953C66.5101 18.2551 64.8559 19.4504 62.6894 20.539C60.3842 21.6916 58.3725 22.2679 56.6542 22.2679C54.8506 22.2679 53.4258 21.5582 52.3799 20.1387C51.5368 18.9861 51.1153 17.8175 51.1153 16.6329C51.1153 14.9253 52.0277 13.2978 53.8527 11.7503C55.1974 10.619 56.4968 9.75988 57.7508 9.17289C59.0048 8.58591 60.1387 8.13234 61.1526 7.81217C63.2978 7.13981 65.2294 6.80363 66.9477 6.80363C67.7161 6.80363 68.4018 6.95037 69.0048 7.24386C69.6078 7.53735 70.0534 7.83351 70.3415 8.13234C71.0246 8.8047 71.3661 9.66382 71.3661 10.7097C71.3661 11.0192 71.3341 11.2593 71.27 11.4301C71.206 11.6009 71.174 11.7609 71.174 11.9104ZM58.079 14.936L58.063 14.984V15C58.063 15.4589 58.1643 15.7577 58.3671 15.8965C58.8581 16.1953 59.3757 16.2727 59.92 16.1286C60.4642 15.9845 60.9818 15.8058 61.4728 15.5923C62.6894 15.0694 63.7887 14.4077 64.7705 13.6073C64.5998 13.2657 64.5144 12.9136 64.5144 12.5507C64.5144 11.7823 64.8506 11.0139 65.5229 10.2455C64.6692 10.2455 63.5165 10.6457 62.0651 11.4461C60.4642 12.3319 59.2636 13.2444 58.4632 14.1836C58.207 14.5037 58.079 14.7545 58.079 14.936ZM92.9456 11.9104C92.9456 12.4867 93.4365 12.7748 94.4184 12.7748C95.1441 12.7748 96.0939 12.4226 97.2679 11.7183L98.5486 11.0139C98.9434 10.7898 99.2876 10.6777 99.5811 10.6777C99.8746 10.6777 100.107 10.7684 100.277 10.9498C100.448 11.1313 100.534 11.3821 100.534 11.7022C100.534 12.0224 100.427 12.3933 100.213 12.8148C100 13.2364 99.7065 13.6793 99.333 14.1435C98.9594 14.6078 98.5219 15.0667 98.0203 15.5203C97.5187 15.9739 96.9797 16.3821 96.4034 16.7449C95.1227 17.5454 93.9328 17.9456 92.8335 17.9456C91.6702 17.9456 90.7417 17.7481 90.048 17.3533C89.8346 17.2252 89.6265 17.0918 89.4237 16.953C88.2818 18.2551 86.6276 19.4504 84.4611 20.539C82.1558 21.6916 80.1441 22.2679 78.4258 22.2679C76.6222 22.2679 75.1974 21.5582 74.1516 20.1387C73.3084 18.9861 72.8869 17.8175 72.8869 16.6329C72.8869 14.9253 73.7993 13.2978 75.6243 11.7503C76.9691 10.619 78.2684 9.75988 79.5224 9.17289C80.7764 8.58591 81.9103 8.13234 82.9242 7.81217C85.0694 7.13981 87.0011 6.80363 88.7193 6.80363C89.4877 6.80363 90.1734 6.95037 90.7764 7.24386C91.3794 7.53735 91.825 7.83351 92.1131 8.13234C92.7962 8.8047 93.1377 9.66382 93.1377 10.7097C93.1377 11.0192 93.1057 11.2593 93.0416 11.4301C92.9776 11.6009 92.9456 11.7609 92.9456 11.9104ZM79.8506 14.936L79.8346 14.984V15C79.8346 15.4589 79.936 15.7577 80.1387 15.8965C80.6297 16.1953 81.1473 16.2727 81.6916 16.1286C82.2359 15.9845 82.7535 15.8058 83.2444 15.5923C84.461 15.0694 85.5603 14.4077 86.5421 13.6073C86.3714 13.2657 86.286 12.9136 86.286 12.5507C86.286 11.7823 86.6222 11.0139 87.2946 10.2455C86.4408 10.2455 85.2881 10.6457 83.8367 11.4461C82.2358 12.3319 81.0352 13.2444 80.2348 14.1836C79.9787 14.5037 79.8506 14.7545 79.8506 14.936ZM115.566 13.175C115.566 14.1462 115.848 14.6318 116.414 14.6318C117.802 14.6318 119.605 13.6926 121.825 11.8143L122.257 11.4461C123.122 10.8698 123.823 10.5816 124.362 10.5816C124.901 10.5816 125.243 10.6617 125.387 10.8218C125.531 10.9819 125.603 11.238 125.603 11.5902C125.603 12.3799 125.203 13.2177 124.402 14.1035C123.207 15.555 121.569 16.9317 119.488 18.2337C117.076 19.7492 114.915 20.5069 113.004 20.5069C111.67 20.5069 110.832 19.7652 110.491 18.2817C110.395 17.8975 110.325 17.5294 110.283 17.1772C110.176 16.3234 110.064 15.8485 109.947 15.7524C109.829 15.6563 109.597 15.6644 109.25 15.7764C108.903 15.8885 108.493 16.0752 108.018 16.3367C107.543 16.5982 107.017 16.9157 106.441 17.2892C103.388 19.317 101.633 20.4749 101.174 20.7631C100.075 21.4461 99.333 21.7876 98.9488 21.7876C98.5646 21.7876 98.1884 21.7076 97.8202 21.5475C97.452 21.3874 97.1291 21.1846 96.8517 20.9392C96.2753 20.3949 95.9872 19.8399 95.9872 19.2743C95.9872 16.0405 96.6916 13.2124 98.1003 10.7898C99.0395 9.15687 100.192 8.02561 101.558 7.39594C102.252 7.0651 102.999 6.89968 103.799 6.89968C105.261 6.89968 105.993 7.37993 105.993 8.34045C105.993 8.92743 105.646 9.88793 104.952 11.222L104.472 12.1665C104.13 12.8175 103.965 13.1857 103.975 13.2711C104.039 13.5912 104.184 13.7513 104.408 13.7513C104.653 13.7513 105.016 13.5699 105.496 13.207L108.442 11.0139L109.915 9.98933C111.612 8.8794 112.86 8.32444 113.661 8.32444C114.088 8.32444 114.477 8.49519 114.829 8.83671C115.48 9.45571 115.806 9.99466 115.806 10.4536C115.806 10.603 115.792 10.7844 115.766 10.9979C115.739 11.2113 115.71 11.4408 115.678 11.6862L115.614 12.4386C115.582 12.6948 115.566 12.9402 115.566 13.175Z" fill="white"/>
</g>
<defs>
<clipPath id="clip0_1_4">
<rect width="126" height="30" fill="white"/>
</clipPath>
</defs>
</svg>
