<svg width="12" height="10" viewBox="0 0 12 10" fill="none" xmlns="http://www.w3.org/2000/svg">
<mask id="mask0_1_118" style="mask-type:alpha" maskUnits="userSpaceOnUse" x="0" y="-1" width="12" height="12">
<path d="M12 -1H0V11H12V-1Z" fill="white"/>
</mask>
<g mask="url(#mask0_1_118)">
<path fill-rule="evenodd" clip-rule="evenodd" d="M10.875 1.4955L11.625 0L10.5 0.747L10.281 0.8565C9.834 0.336 9.1785 0 8.4375 0C7.09125 0 6 0.90075 6 2.244C6 2.427 6.024 2.79075 6.06225 2.961L6 2.9925C6 2.9925 1.125 2.244 0.75 0.3735C0.75 0.3735 -0.375 2.244 1.5 3.74025C1.5 3.74025 0.75 4.1145 0.375 3.74025C0.375 3.74025 0.375 4.863 2.25 5.985C2.25 5.985 1.5 6.3585 1.125 5.985C1.125 5.985 2.625 7.4805 3.375 7.4805C3.375 7.4805 3.375 8.604 0 8.604C0 8.604 4.26675 11.4082 8.25 8.22975C10.275 6.6135 10.7677 4.566 10.7948 3.02175C10.842 2.832 10.875 2.63625 10.875 2.4315V2.244L12 1.122L10.875 1.4955Z" fill="white"/>
</g>
</svg>
